<svg xmlns="http://www.w3.org/2000/svg" viewBox="0 0 283.46 194.43"><defs><style>.cls-1{fill:#fff;}</style></defs><title>Asset 2</title><g id="Layer_2" data-name="Layer 2"><g id="Layer_1-2" data-name="Layer 1"><polygon class="cls-1" points="34.44 13.37 34.44 13.37 34.44 13.36 34.44 13.37"/><path class="cls-1" d="M257.16,1.48A3.35,3.35,0,0,0,254.24,0H160.61a8.67,8.67,0,0,0-6.38,2.39,8.88,8.88,0,0,0-2.32,4.38c0,.07-.14.43-.92.43H132.48c-.8,0-.91-.37-.92-.41a9,9,0,0,0-2.32-4.4A8.69,8.69,0,0,0,122.86,0H29.22a3.34,3.34,0,0,0-2.91,1.48,3.19,3.19,0,0,0,.17,3.32l1.71,2.85c.69,1.14,1.5,1.57,3.18,1.68a1.87,1.87,0,0,1,1.35,1l1.75,3.07a4.93,4.93,0,0,0,4.19,2.75,1.89,1.89,0,0,1,1.4,1L42.21,21c.63,1.22,1.51,1.67,3.11,2.17l39.16,11.5a3.29,3.29,0,0,1,1.88,1.89c.93,2.42,2.15,4.4,8.26,6.25l32,8.74a7,7,0,0,0,6.83-1.42L141,42.93a1,1,0,0,1,1.48,0S150,50.11,150,50.11a7,7,0,0,0,6.84,1.41l32-8.73c6.1-1.85,7.36-3.87,8.25-6.25A3.18,3.18,0,0,1,199,34.65l39.15-11.5c1.61-.49,2.49-.95,3.12-2.17l2.13-3.76a1.93,1.93,0,0,1,1.38-1A5,5,0,0,0,249,13.43l1.75-3.07a1.86,1.86,0,0,1,1.36-1,3.38,3.38,0,0,0,3.17-1.68L257,4.8a4.08,4.08,0,0,0,.55-1.92,2.72,2.72,0,0,0-.38-1.4M153.61,7.16a7.13,7.13,0,0,1,1.85-3.54,7,7,0,0,1,5.15-1.88h43a8.83,8.83,0,0,0-2.31,2.61c-.5.93-1.12,2-1.86,3.24h-46a2,2,0,0,0,.15-.43M95.36,22l0,0V9h92.77V22H95.36ZM94,10.73l-7.61.5c-.55-.79-1.06-1.55-1.52-2.28H94Zm0,1.4V14l-5.1.68q-.83-1.06-1.56-2.1Zm0,3.22V17.5L91.61,18c-.6-.7-1.19-1.4-1.74-2.08Zm0,3.53v1.71c-.46-.48-.9-1-1.34-1.44L94,18.88m17.14,4.46h8.38l-11.7,8.38a64.7,64.7,0,0,1-5.93-4l9.25-4.33m-10.45,3.39c-.1-.08-2.77-2.33-3.91-3.39h11.16Zm21.16-3.39h4.5l-11.54,12a63.94,63.94,0,0,1-5.72-2.9l12.76-9.13m6.38,0h3.83l-8.89,15.05a63.51,63.51,0,0,1-7-2.45l12.09-12.6m5.4,0h3.23l-4.69,16.9a64.63,64.63,0,0,1-7.65-1.49l9.11-15.41m16.23,0L159,38.75a65.88,65.88,0,0,1-7.65,1.49l-4.68-16.9Zm1.57,0h3.83l12.09,12.6a63.45,63.45,0,0,1-7,2.44Zm5.71,0h4.49l12.76,9.13a60,60,0,0,1-5.71,2.9c-4.21-4.38-9.27-9.65-11.54-12m6.82,0h8.39l9.25,4.33a66.1,66.1,0,0,1-5.93,4L164,23.34m11.59,0H186.7c-1.14,1.13-3.82,3.32-3.91,3.39l-7.25-3.39m13.93-4.46,1.35.27c-.44.49-.89,1-1.35,1.45Zm0-1.38V15.35l4.13.56c-.56.68-1.14,1.38-1.74,2.08l-2.39-.49m0-3.51V12.13l6.68.44c-.5.69-1,1.39-1.57,2.1Zm0-3.26V9h9.14c-.46.73-1,1.49-1.52,2.28Zm-66.61-9A7,7,0,0,1,128,3.62a7.14,7.14,0,0,1,1.86,3.54,3.21,3.21,0,0,0,.15.43H84c-.7-1.15-1.86-3.24-1.86-3.24a8.89,8.89,0,0,0-2.3-2.61ZM31.5,7.59c-1.19-.09-1.45-.23-1.82-.84L28,4a2.29,2.29,0,0,1-.33-1.08c0-.63.46-1.12,1.6-1.14H75.93C79.1,1.75,81,5,81,5c.41.76.9,1.64,1.47,2.6Zm6.32,6.62A2.94,2.94,0,0,1,36,12.62c-.73-1.24-1.68-3.08-2.15-3.67h49.4c.47.75,1,1.55,1.55,2.39L41.47,14.21a13.88,13.88,0,0,1-3.65,0m8,6.24c-1.58.21-2.07-.31-2.17-.44l-2.07-3.65a3.74,3.74,0,0,0-.48-.7l44.63-3c.5.72,1,1.45,1.61,2.2Zm10.06,4L46.6,21.71l41.71-5.59c.57.71,1.16,1.44,1.79,2.18L61.56,24.16c-1.06.22-4.1.69-5.67.28M70,28.59l-9.7-2.85c.84-.12,1.44-.24,1.51-.25l29.28-6c.85,1,1.74,1.91,2.69,2.87l-19.12,5.9a9.62,9.62,0,0,1-4.66.35M84.94,33,74.14,29.8c.56-.13.93-.26,1-.27L94.9,23.42q2.05,2,4.42,3.95L89,32.21a7,7,0,0,1-4,.76m8.29,7.52C89.18,39,88.58,37.44,88,36a5.45,5.45,0,0,0-1-1.67,10.68,10.68,0,0,0,2.57-.86l10.93-5.11a64.35,64.35,0,0,0,6.11,4.26L96.94,39.5s-2,1.51-3.71,1m11.6,3.28-8.57-2.34a8.66,8.66,0,0,0,1.49-.84l10.12-7.25a65.44,65.44,0,0,0,5.94,3.07l-5.63,5.87c-.5.52-2.07,1.79-3.35,1.49M116.71,47l-9.22-2.51a8.05,8.05,0,0,0,1.67-1.29l6-6.22a61.57,61.57,0,0,0,7.31,2.6l-3,5.16c-.36.67-1.61,2.43-2.68,2.26m13.53.18a4.17,4.17,0,0,1-1.52,2.36,2.41,2.41,0,0,1-1.85.23l-8.06-2.2a8,8,0,0,0,1.76-2.16s1.37-2.3,3.22-5.45a68.21,68.21,0,0,0,8,1.6Zm2,1.66a4.52,4.52,0,0,1-2,1.11,6,6,0,0,0,1.25-2.47l1.59-5.75c2,.24,4,.39,6.11.45l-7,6.66m1.24-8.44,4.74-17.07h2.8V40.87a69.07,69.07,0,0,1-7.54-.46m8.89.47V23.34h2.8L150,40.42a74.63,74.63,0,0,1-7.54.46M150,47.74l-5.81-5.55c2.07-.06,4.1-.22,6.1-.45l1.6,5.75A6,6,0,0,0,153.16,50c-1.22-.35-1.59-.71-3.14-2.22m6.58,2a2.4,2.4,0,0,1-1.85-.23,4.09,4.09,0,0,1-1.52-2.35l-1.56-5.64a65.45,65.45,0,0,0,8-1.6l3.24,5.48a7.67,7.67,0,0,0,1.75,2.14ZM166.76,47c-1.07.17-2.32-1.59-2.68-2.24L161,39.59a62.36,62.36,0,0,0,7.32-2.6l6,6.22A8.16,8.16,0,0,0,176,44.5Zm13.4-3.66-1.52.42c-1.28.3-2.85-1-3.35-1.49l-5.63-5.87a61.79,61.79,0,0,0,5.94-3.07l10.13,7.26a8.67,8.67,0,0,0,1.48.83l-7.05,1.92M195.47,36c-.58,1.47-1.18,3-5.24,4.53-1.68.51-3.67-1-3.69-1l-9.68-6.93A67,67,0,0,0,183,28.32l10.94,5.12a10.54,10.54,0,0,0,2.56.85,5.55,5.55,0,0,0-1,1.67m3.06-3a6.91,6.91,0,0,1-4-.75l-10.36-4.85c1.57-1.29,3-2.61,4.42-3.95l19.81,6.12s.39.13.94.26Zm14.91-4.38a9.76,9.76,0,0,1-4.65-.34h0l-19.09-5.89c1-.95,1.84-1.91,2.69-2.87l29.28,6c.07,0,.67.13,1.51.25Zm14.15-4.16c-1.57.42-4.62-.05-5.68-.27L193.37,18.3c.63-.74,1.23-1.46,1.8-2.18l41.69,5.59Zm14.28-8s-1.71,3-2.06,3.63c-.09.12-.58.65-2.17.44l-41.52-5.57c.57-.75,1.11-1.48,1.61-2.2l44.11,2.93.52.05a3.5,3.5,0,0,0-.49.72m7.36-6.88-1.77,3.12a2.94,2.94,0,0,1-1.81,1.59,13.88,13.88,0,0,1-3.65,0l-43.34-2.87c.57-.84,1.08-1.64,1.56-2.39h49.39a4.07,4.07,0,0,0-.38.55M255.47,4l-1.68,2.79c-.32.52-.51.75-1.81.84H201c.57-1,1.06-1.84,1.47-2.6,0,0,1.82-3.24,5-3.24H254.2a1.63,1.63,0,0,1,1.46.63.91.91,0,0,1,.14.51A2.41,2.41,0,0,1,255.47,4"/><path class="cls-1" d="M101.51,11h-.39l-4,8.87h1.07l0,0c.32-1.08.73-2.11,1.13-3.11l.09-.2h3.07c.41.94.83,2,1.28,3.31l0,0h1.48Zm-1.74,4.82L101,12.93l1.27,2.92Z"/><path class="cls-1" d="M105.75,19.27l0,0a3.32,3.32,0,0,0,2.1.75A2.91,2.91,0,0,0,111,17.13c0-1.43-1.08-1.85-2.12-2.26s-1.81-.72-1.81-1.77a1.39,1.39,0,0,1,1.49-1.38,1.52,1.52,0,0,1,1.48,1l0,0h.23l.37-1.11,0,0a2.84,2.84,0,0,0-1.83-.62C107.1,11,106,12,106,13.5s1.13,2,2.14,2.38,1.76.69,1.76,1.73a1.69,1.69,0,0,1-1.65,1.75,2.12,2.12,0,0,1-2-1.26l0,0H106Z"/><path class="cls-1" d="M118,11.21h-6.52v.92h.08a22.24,22.24,0,0,1,2.65-.15v8h1.26V12a20.21,20.21,0,0,1,2.52.15h.09v-.92Z"/><path class="cls-1" d="M122.53,11a4.41,4.41,0,0,0-4.7,4.53,4.34,4.34,0,0,0,4.68,4.49,4.5,4.5,0,0,0,4.83-4.68c0-3-2.41-4.34-4.81-4.34m2.32,7.47a3.08,3.08,0,0,1-2.31,1c-2,0-3.33-1.48-3.33-3.78,0-2.54,1.32-4.11,3.45-4.11a3.24,3.24,0,0,1,2.53,1.17,4.06,4.06,0,0,1,.77,2.7,1.09,1.09,0,0,1,0,.18,4.42,4.42,0,0,1-1.12,2.85"/><path class="cls-1" d="M136,11.21h-.78v6.43h0l-5.93-6.43h-.6V19.9h.85V13.18h0L135,19.12l.67.78h.49V11.21Z"/><path class="cls-1" d="M150.07,11.21h-.31L147.66,15s-1.34,2.42-1.45,2.64c-1.3-2.16-2.47-4.44-3.47-6.41l0,0h-.44v.08c-.12,1.28-.87,6.51-1.19,8.52l0,.09h1.05v-.08c0-1.22.22-3,.45-5l.14-1.19c.14.27,1.78,3.38,2.4,4.66l.71,1.46h.24l0-.05c.72-1.67,1.75-3.58,3.15-6.09.2,1.5.46,4.49.61,6.2v.07h1.34l0-.09c-.29-2.1-.62-4.89-1-8.52v-.08Z"/><path class="cls-1" d="M156,11h-.38l-4,8.87h1.08v0c.32-1.09.74-2.13,1.14-3.13l.08-.18H157c.43,1,.86,2.07,1.3,3.31v0h1.49Zm-1.74,4.82c.08-.19,1.12-2.63,1.25-2.92.12.29,1.18,2.73,1.26,2.92Z"/><path class="cls-1" d="M163.65,15.61c1.57-.32,2.51-1.21,2.51-2.42s-.94-2-2.85-2h-2.73V19.9h1.25V15.74h.37l1,1.14,1.47,1.91.81,1.11h1.64l-3.44-4.29m-1.82-.5V11.83a11.28,11.28,0,0,1,1.75,0,1.39,1.39,0,0,1,1.31,1.5,1.73,1.73,0,0,1-1.54,1.71,6.87,6.87,0,0,1-1.52.06"/><path class="cls-1" d="M173.39,11.21h-6.53v.92H167A22.24,22.24,0,0,1,169.6,12v8h1.26V12a20.21,20.21,0,0,1,2.52.15h.08v-.92Z"/><rect class="cls-1" x="174.49" y="11.21" width="1.18" height="8.69"/><path class="cls-1" d="M184.07,11.21v6.43h0l-5.94-6.43h-.59V19.9h.85V13.18h0l5.38,5.94.66.78h.49V11.21Z"/><path class="cls-1" d="M25.48,106.22a6.35,6.35,0,0,0-.95-.07H22.64a6.35,6.35,0,0,0-.95.07c-.17-.55-.39-1.21-.68-2s-.6-1.59-1-2.44-.69-1.7-1-2.57-.69-1.7-1-2.49l-2.33,0c-.79,0-1.57,0-2.36,0s-1.47,0-2.18,0L9,96.74q-1.16,2.79-2.08,5.31c-.62,1.69-1.09,3.07-1.4,4.17a10.74,10.74,0,0,0-1.32-.07,11,11,0,0,0-1.33.07Q5.74,100,8.49,93.77T14,81.18h.68q.87,2.07,1.86,4.49l2,4.88c.69,1.65,1.39,3.28,2.08,4.9S22,98.58,22.64,100s1.15,2.64,1.65,3.74.88,1.93,1.19,2.5M9.63,95.09c.62,0,1.27,0,1.94,0l1.93,0h2c.67,0,1.34,0,2-.06l-4-9.08Z"/><path class="cls-1" d="M29.94,102.88a5.82,5.82,0,0,0,1.18,1.2,6.31,6.31,0,0,0,1.63.87,5.91,5.91,0,0,0,2.07.34,5.36,5.36,0,0,0,2.13-.41,4.73,4.73,0,0,0,1.61-1.11,4.79,4.79,0,0,0,1-1.65,5.61,5.61,0,0,0,.36-2,3.86,3.86,0,0,0-.84-2.61A7.06,7.06,0,0,0,37,95.88,25.1,25.1,0,0,0,34.3,94.7a14.77,14.77,0,0,1-2.7-1.34,7.2,7.2,0,0,1-2.09-2.06,5.93,5.93,0,0,1-.84-3.36,6.94,6.94,0,0,1,.53-2.74,6.06,6.06,0,0,1,1.56-2.13,7.42,7.42,0,0,1,2.45-1.39,9.55,9.55,0,0,1,3.22-.5,9.39,9.39,0,0,1,3,.41,7.18,7.18,0,0,1,2.33,1.27,6.92,6.92,0,0,0-.54,1.28c-.14.46-.29,1-.43,1.72h-.43a10.48,10.48,0,0,0-.48-1.09A4.22,4.22,0,0,0,39,83.68a4.59,4.59,0,0,0-1.24-.84,3.89,3.89,0,0,0-1.71-.34,5.24,5.24,0,0,0-1.85.32,4.44,4.44,0,0,0-1.47.91,4.24,4.24,0,0,0-1,1.42,4.57,4.57,0,0,0-.34,1.79,3.87,3.87,0,0,0,.84,2.64,7.12,7.12,0,0,0,2.09,1.63,20.74,20.74,0,0,0,2.7,1.18,15.67,15.67,0,0,1,2.71,1.27,7,7,0,0,1,2.09,1.93,5.34,5.34,0,0,1,.84,3.15,8.36,8.36,0,0,1-.59,3.12,7.46,7.46,0,0,1-1.72,2.56,7.86,7.86,0,0,1-2.75,1.68,10.94,10.94,0,0,1-3.71.59,9.27,9.27,0,0,1-3.59-.59,10,10,0,0,1-2.31-1.35,9.28,9.28,0,0,0,.45-1.48c.08-.44.16-1,.23-1.7h.43a7.56,7.56,0,0,0,.77,1.31"/><path class="cls-1" d="M53.07,83.5l-2,0c-.68,0-1.36,0-2,.07l-2,.13c-.63,0-1.2.1-1.7.18a4.38,4.38,0,0,0,.18-1.15,5,5,0,0,0-.18-1.11l4.62.13c1.5,0,3,0,4.61,0s3.12,0,4.62,0l4.62-.13a5,5,0,0,0-.18,1.15,4.23,4.23,0,0,0,.18,1.11c-.51-.08-1.07-.14-1.7-.18l-2-.13c-.68,0-1.36-.06-2-.07l-2,0q-.11,3.69-.11,7.41v6.15q0,2.37.09,4.65c.06,1.53.12,3,.2,4.51-.55,0-1.14-.07-1.76-.07s-1.2,0-1.75.07c.07-1.48.14-3,.2-4.51s.09-3.07.09-4.65V90.91q0-3.72-.11-7.41"/><path class="cls-1" d="M66.11,88.56a11.45,11.45,0,0,1,2.76-4A11.9,11.9,0,0,1,73.11,82a16.35,16.35,0,0,1,5.4-.85A16.55,16.55,0,0,1,84,82a11.9,11.9,0,0,1,4.24,2.51,11.29,11.29,0,0,1,2.75,4,15.36,15.36,0,0,1,0,10.85,11,11,0,0,1-7,6.47,17.39,17.39,0,0,1-5.44.81,17.18,17.18,0,0,1-5.4-.81,11.23,11.23,0,0,1-4.24-2.45,11.45,11.45,0,0,1-2.76-4,15.51,15.51,0,0,1,0-10.85m21.56.29a9.9,9.9,0,0,0-2.09-3.58,8.4,8.4,0,0,0-3.15-2.09,11.13,11.13,0,0,0-3.92-.68,11,11,0,0,0-3.88.68,8.25,8.25,0,0,0-3.15,2.09,9.76,9.76,0,0,0-2.09,3.58,17.73,17.73,0,0,0,0,10.27,9.68,9.68,0,0,0,2.09,3.58,8.25,8.25,0,0,0,3.15,2.09,11,11,0,0,0,3.88.68,11.13,11.13,0,0,0,3.92-.68,8.4,8.4,0,0,0,3.15-2.09,9.82,9.82,0,0,0,2.09-3.58,18,18,0,0,0,0-10.27"/><path class="cls-1" d="M108.67,96.94q-4.65-5-9.3-9.93c0,.67-.05,1.56-.07,2.68s0,2.65,0,4.58c0,.5,0,1.12,0,1.86s0,1.52,0,2.33l.06,2.46c0,.84,0,1.62.07,2.33s0,1.34.07,1.88,0,.9.07,1.09a9.7,9.7,0,0,0-1.25-.07,10.85,10.85,0,0,0-1.32.07c0-.24.1-.68.16-1.32s.11-1.42.16-2.31.1-1.87.16-2.92.11-2.09.14-3.15.07-2.07.09-3.07,0-1.9,0-2.68c0-2.29,0-4.26,0-5.91s0-2.87-.09-3.68h.58l4.66,5.06,4.94,5.33,4.65,5q2.2,2.35,3.85,4V95.67q0-3.77,0-7.32T116,81.64a5.2,5.2,0,0,0,1.22.18,5.07,5.07,0,0,0,1.15-.18c0,.53-.11,1.31-.17,2.36s-.12,2.17-.18,3.36-.11,2.37-.16,3.51-.07,2.07-.07,2.76v2.14c0,.82,0,1.66,0,2.54s0,1.78,0,2.67,0,1.73,0,2.5,0,1.45,0,2v1.18h-.5q-4.11-4.75-8.77-9.75"/><path class="cls-1" d="M148.44,91.05q2.52,4.8,5.28,9.84c.24-.45.58-1.1,1-2s1-1.82,1.57-2.92,1.24-2.28,1.92-3.56l2.07-3.88c.7-1.31,1.4-2.6,2.1-3.86s1.33-2.45,1.93-3.54h.46q.39,3.43.74,6.63t.69,6.3q.36,3.09.72,6.12c.24,2,.5,4,.79,6a6.22,6.22,0,0,0-.85-.07h-1.68a6.2,6.2,0,0,0-.84.07c-.26-3.17-.53-6.25-.78-9.23s-.59-6-1-9.12h-.07q-2.48,4.5-4.85,9c-1.59,3-3.09,6.08-4.53,9.32h-.32q-2.15-4.52-4.49-9t-4.7-9.25h-.08c-.16,1.48-.35,3.08-.55,4.81s-.39,3.43-.56,5.11-.31,3.27-.42,4.76-.19,2.72-.19,3.67a11.59,11.59,0,0,0-1.25-.07,11.9,11.9,0,0,0-1.25.07q.47-2.89,1-6.12t1-6.47q.47-3.25.86-6.42c.27-2.12.49-4.13.68-6h.61q2.48,5.07,5,9.87"/><path class="cls-1" d="M195.05,106.22a6.45,6.45,0,0,0-1-.07h-1.9a6.45,6.45,0,0,0-.95.07c-.17-.55-.39-1.21-.68-2s-.6-1.59-.94-2.44l-1.06-2.57c-.36-.87-.69-1.7-1-2.49l-2.33,0c-.78,0-1.57,0-2.36,0s-1.47,0-2.18,0l-2.19,0q-1.14,2.79-2.07,5.31c-.62,1.69-1.09,3.07-1.4,4.17a12.48,12.48,0,0,0-2.64,0q2.9-6.25,5.65-12.45t5.55-12.59h.68l1.86,4.49c.66,1.61,1.34,3.23,2,4.88s1.38,3.28,2.07,4.9,1.34,3.13,1.95,4.53,1.16,2.64,1.65,3.74.89,1.93,1.2,2.5M179.2,95.09c.61,0,1.26,0,1.93,0l1.93,0h2q1,0,2-.06l-4-9.08Z"/><path class="cls-1" d="M201.4,86.27c-.06-1.51-.13-3.06-.2-4.63l2,.13c.67,0,1.34,0,2,0s1.37,0,2-.09,1.34-.09,2-.09a13.94,13.94,0,0,1,2.86.29,6.75,6.75,0,0,1,2.38.95,4.86,4.86,0,0,1,1.61,1.73,6.22,6.22,0,0,1-.18,5.64,7.21,7.21,0,0,1-1.88,2,9.5,9.5,0,0,1-2.38,1.25,12.08,12.08,0,0,1-2.31.59l1.19,1.5c.5.65,1.06,1.35,1.68,2.13s1.26,1.59,1.93,2.43l1.93,2.44c.62.77,1.2,1.48,1.75,2.12s1,1.14,1.33,1.47a7.83,7.83,0,0,0-1.08-.07h-2.11a6.94,6.94,0,0,0-1,.07L213.42,104c-.73-1-1.53-2.08-2.42-3.22s-1.78-2.29-2.7-3.42-1.76-2.09-2.52-2.88h-1.36v2.61q0,2.37.09,4.65c.06,1.53.12,3,.19,4.51-.54,0-1.13-.07-1.75-.07s-1.2,0-1.75.07c.07-1.48.14-3,.2-4.51s.08-3.07.08-4.65V90.91c0-1.58,0-3.12-.08-4.64m4.11,6.82c.39,0,.83,0,1.31,0a11.78,11.78,0,0,0,2.31-.24,6.82,6.82,0,0,0,2.2-.88A5.33,5.33,0,0,0,213,90.32a5,5,0,0,0,.66-2.67,4.59,4.59,0,0,0-.52-2.31,4.13,4.13,0,0,0-1.34-1.44,5,5,0,0,0-1.79-.74,9.59,9.59,0,0,0-1.9-.2q-1.24,0-2.07.06c-.55,0-1,.08-1.4.12,0,1.32-.09,2.62-.14,3.9s-.07,2.58-.07,3.87v2a7,7,0,0,0,1.09.14"/><path class="cls-1" d="M229.9,83.5l-2,0c-.69,0-1.36,0-2,.07l-2,.13c-.63,0-1.2.1-1.7.18a4.38,4.38,0,0,0,.18-1.15,5,5,0,0,0-.18-1.11l4.61.13c1.51,0,3.05,0,4.62,0s3.11,0,4.61,0l4.62-.13a5,5,0,0,0-.18,1.15,4.23,4.23,0,0,0,.18,1.11c-.5-.08-1.07-.14-1.7-.18l-2-.13c-.68,0-1.36-.06-2-.07l-2,0q-.1,3.69-.1,7.41v6.15c0,1.58,0,3.13.09,4.65s.12,3,.19,4.51c-.55,0-1.13-.07-1.75-.07s-1.21,0-1.75.07c.07-1.48.13-3,.19-4.51s.09-3.07.09-4.65V90.91q0-3.72-.1-7.41"/><path class="cls-1" d="M247.16,86.27c-.06-1.51-.13-3.06-.2-4.63l.9.13a7.34,7.34,0,0,0,1.71,0l.9-.13c-.07,1.57-.14,3.12-.2,4.63s-.09,3.06-.09,4.64v6.15q0,2.37.09,4.65c.06,1.53.13,3,.2,4.51-.55,0-1.13-.07-1.75-.07s-1.21,0-1.76.07c.07-1.48.14-3,.2-4.51s.09-3.07.09-4.65V90.91c0-1.58,0-3.12-.09-4.64"/><path class="cls-1" d="M270.9,96.94q-4.65-5-9.31-9.93c0,.67,0,1.56-.06,2.68s0,2.65,0,4.58c0,.5,0,1.12,0,1.86s0,1.52,0,2.33,0,1.63,0,2.46.05,1.62.08,2.33.05,1.34.07,1.88.05.9.07,1.09a9.7,9.7,0,0,0-1.25-.07,11,11,0,0,0-1.33.07c0-.24.11-.68.17-1.32s.11-1.42.16-2.31.1-1.87.16-2.92.1-2.09.14-3.15.07-2.07.09-3.07,0-1.9,0-2.68c0-2.29,0-4.26,0-5.91s0-2.87-.09-3.68h.57c1.46,1.57,3,3.26,4.67,5.06s3.3,3.58,4.94,5.33,3.18,3.41,4.65,5,2.75,2.9,3.85,4V95.67q0-3.77-.06-7.32t-.23-6.71a5.13,5.13,0,0,0,1.22.18,4.92,4.92,0,0,0,1.14-.18c-.05.53-.1,1.31-.16,2.36s-.12,2.17-.18,3.36-.11,2.37-.16,3.51-.07,2.07-.07,2.76v2.14c0,.82,0,1.66,0,2.54l0,2.67c0,.89,0,1.73,0,2.5s0,1.45,0,2v1.18h-.5q-4.12-4.75-8.77-9.75"/><rect class="cls-1" y="135.33" width="283.46" height="1.03"/><path class="cls-1" d="M74.06,188.18h.44a10.74,10.74,0,0,0,3,3.32,6.66,6.66,0,0,0,3.9,1.1,5.63,5.63,0,0,0,3-.84,6,6,0,0,0,2.12-2.27,6.49,6.49,0,0,0,.76-3.1,4.49,4.49,0,0,0-1.62-3.85A21.46,21.46,0,0,0,80.74,180a16.41,16.41,0,0,1-5-2.88,6.18,6.18,0,0,1-1.72-4.8,7.26,7.26,0,0,1,2.68-6,10.58,10.58,0,0,1,6.77-2.12,11.14,11.14,0,0,1,3.31.51,7,7,0,0,1,2.76,1.53c-.22.5-.61,1.66-1.15,3.49h-.41a5.65,5.65,0,0,0-2-2.71,5.45,5.45,0,0,0-3.24-1,5.84,5.84,0,0,0-2.7.63A4.83,4.83,0,0,0,78,168.39,4.74,4.74,0,0,0,77.3,171a4.47,4.47,0,0,0,1.6,3.81,22.24,22.24,0,0,0,5,2.56,17.73,17.73,0,0,1,5.1,2.84,5.75,5.75,0,0,1,1.71,4.54,9.88,9.88,0,0,1-.8,4,8.86,8.86,0,0,1-2.26,3.08,10.2,10.2,0,0,1-3.36,1.93,12.13,12.13,0,0,1-7.9,0,7,7,0,0,1-3.13-1.8A19.25,19.25,0,0,0,74.06,188.18Z"/><path class="cls-1" d="M102.26,166.84V177.5h6.61c.26,0,.64,0,1.14-.05l1.28-.09,1.36-.09c0,.25-.06.47-.08.65a3,3,0,0,0,0,.47,3.85,3.85,0,0,0,0,.44c0,.21.05.46.08.75l-1.36-.09-1.28-.08c-.5,0-.88,0-1.14,0h-6.61v12.42q2.59,0,7.71-.16a34.88,34.88,0,0,0,3.93-.4c0,.11,0,.26-.07.45s0,.34,0,.45,0,.24,0,.39a4.83,4.83,0,0,0,0,.63c0,.22.07.43.1.64H98.52v-29h15.11c0,.3-.06.56-.09.77a3.79,3.79,0,0,0,0,.53,4,4,0,0,0,0,.52q0,.33.09.75a30.69,30.69,0,0,0-3.83-.45l-4.26-.09Z"/><path class="cls-1" d="M135.59,194.43a18.29,18.29,0,0,1-6.4-1.07,14.12,14.12,0,0,1-5-3.07A13.31,13.31,0,0,1,121,185.5a16.63,16.63,0,0,1-1.1-6.13,15.93,15.93,0,0,1,1.2-6.25,13.91,13.91,0,0,1,3.37-4.84,14.85,14.85,0,0,1,5-3.05,17.66,17.66,0,0,1,6.18-1,20.72,20.72,0,0,1,6,.87,15.25,15.25,0,0,1,5.17,2.64,13,13,0,0,1,3.62,4.56,14.79,14.79,0,0,1,1.34,6.48,16.2,16.2,0,0,1-2.06,8.21,14,14,0,0,1-5.76,5.54A17.78,17.78,0,0,1,135.59,194.43Zm12-15.36a24.41,24.41,0,0,0-.22-3.53,12.84,12.84,0,0,0-.82-3,10.87,10.87,0,0,0-1.64-2.8,10.47,10.47,0,0,0-2.45-2.24,11,11,0,0,0-3.07-1.42,12.34,12.34,0,0,0-3.33-.47,12,12,0,0,0-5,1,10.55,10.55,0,0,0-3.81,2.91,13.1,13.1,0,0,0-2.38,4.56,19.85,19.85,0,0,0-.81,5.81,16.23,16.23,0,0,0,.89,5.57,12,12,0,0,0,2.49,4.16,10.33,10.33,0,0,0,3.75,2.56,12,12,0,0,0,4.49.85A10.47,10.47,0,0,0,141,191.7a11.45,11.45,0,0,0,3.73-3.42,16,16,0,0,0,2.15-4.58A16.92,16.92,0,0,0,147.62,179.07Z"/><path class="cls-1" d="M163.46,164.81v16.31a23.34,23.34,0,0,0,.47,5,9.15,9.15,0,0,0,1.54,3.55,6.44,6.44,0,0,0,2.9,2.14,12.4,12.4,0,0,0,4.47.71q4.83,0,7-3.13t2.17-8.67V164.81c.26,0,.48.05.68.08a3.37,3.37,0,0,0,.52,0,3.26,3.26,0,0,0,.47,0c.2,0,.44-.06.72-.08v16.93a14.71,14.71,0,0,1-1.51,7,10,10,0,0,1-4.33,4.29,14.4,14.4,0,0,1-6.58,1.43,19.55,19.55,0,0,1-3.78-.33,11.8,11.8,0,0,1-3-1,10.12,10.12,0,0,1-2.45-1.67,7.76,7.76,0,0,1-2.42-4.05,24.62,24.62,0,0,1-.64-5.55v-17c.42,0,.78.05,1.08.08s.57,0,.79,0,.43,0,.74,0S163,164.83,163.46,164.81Z"/><path class="cls-1" d="M198.46,164.81v27q2.59,0,7.7-.16c.46,0,1.08-.06,1.86-.15s1.52-.16,2.19-.25c0,.31-.05.56-.08.77a3.66,3.66,0,0,0,0,.52,3.88,3.88,0,0,0,0,.52c0,.22.06.47.08.75H194.72v-29c.41,0,.78.05,1.09.08s.57,0,.78,0,.45,0,.76,0S198,164.83,198.46,164.81Z"/></g></g></svg>